<svg xmlns="http://www.w3.org/2000/svg" viewBox="0 0 32 32" width="32" height="32">
  <!-- Background circle with clinical blue -->
  <circle cx="16" cy="16" r="15" fill="#0d47a1" stroke="#ffffff" stroke-width="2"/>
  
  <!-- DNA/Medical helix symbol -->
  <g fill="#ffffff" opacity="0.9">
    <!-- Simplified DNA strands -->
    <ellipse cx="13" cy="10" rx="1.5" ry="0.8" transform="rotate(-30 13 10)"/>
    <ellipse cx="19" cy="10" rx="1.5" ry="0.8" transform="rotate(30 19 10)"/>
    
    <ellipse cx="11" cy="14" rx="1.5" ry="0.8" transform="rotate(30 11 14)"/>
    <ellipse cx="21" cy="14" rx="1.5" ry="0.8" transform="rotate(-30 21 14)"/>
    
    <ellipse cx="13" cy="18" rx="1.5" ry="0.8" transform="rotate(-30 13 18)"/>
    <ellipse cx="19" cy="18" rx="1.5" ry="0.8" transform="rotate(30 19 18)"/>
    
    <ellipse cx="11" cy="22" rx="1.5" ry="0.8" transform="rotate(30 11 22)"/>
    <ellipse cx="21" cy="22" rx="1.5" ry="0.8" transform="rotate(-30 21 22)"/>
  </g>
  
  <!-- Central connecting line -->
  <line x1="16" y1="8" x2="16" y2="24" stroke="#ffffff" stroke-width="1" opacity="0.7"/>
  
  <!-- AI/Science symbol - simplified molecular structure -->
  <g fill="#ffffff" opacity="0.8">
    <!-- Central node -->
    <circle cx="16" cy="16" r="2"/>
    
    <!-- Connecting nodes -->
    <circle cx="12" cy="12" r="1"/>
    <circle cx="20" cy="12" r="1"/>
    <circle cx="12" cy="20" r="1"/>
    <circle cx="20" cy="20" r="1"/>
    
    <!-- Connection lines -->
    <line x1="14" y1="14" x2="12" y2="12" stroke="#ffffff" stroke-width="0.8"/>
    <line x1="18" y1="14" x2="20" y2="12" stroke="#ffffff" stroke-width="0.8"/>
    <line x1="14" y1="18" x2="12" y2="20" stroke="#ffffff" stroke-width="0.8"/>
    <line x1="18" y1="18" x2="20" y2="20" stroke="#ffffff" stroke-width="0.8"/>
  </g>
  
  <!-- Small medical cross accent -->
  <g fill="#ffffff" opacity="0.6">
    <rect x="8" y="7" width="1" height="3"/>
    <rect x="7" y="8" width="3" height="1"/>
  </g>
</svg>